# Blender 3.1.0
# www.blender.org
o Mesh_Mesh_head_geo.001_lambert2SG.001
v 40.000008 -20.000000 19.999996
v 40.000004 -20.000000 -0.000005
v 60.000008 -20.000000 -0.000008
v 40.000008 0.000000 19.999996
v 40.000004 0.000000 -0.000005
v 40.000004 -20.000000 -0.000005
v 40.000008 0.000000 19.999996
v 40.000004 -20.000000 -0.000005
v 40.000008 -20.000000 19.999996
v 40.000008 0.000000 19.999996
v 40.000008 -20.000000 19.999996
v 60.000008 -20.000000 -0.000008
v 40.000008 0.000000 19.999996
v 60.000008 -20.000000 -0.000008
v 60.000008 0.000000 -0.000008
v 40.000004 0.000000 -0.000005
v 40.000008 0.000000 19.999996
v 60.000008 0.000000 -0.000008
v 40.000004 -20.000000 -0.000005
v 40.000004 0.000000 -0.000005
v 60.000008 0.000000 -0.000008
v 40.000004 -20.000000 -0.000005
v 60.000008 0.000000 -0.000008
v 60.000008 -20.000000 -0.000008
vn -0.0000 -1.0000 -0.0000
vn -1.0000 -0.0000 -0.0000
vn 0.7071 -0.0000 0.7071
vn -0.0000 1.0000 -0.0000
vn -0.0000 -0.0000 -1.0000
s 0
f 1//1 2//1 3//1
f 4//2 5//2 6//2
f 7//2 8//2 9//2
f 10//3 11//3 12//3
f 13//3 14//3 15//3
f 16//4 17//4 18//4
f 19//5 20//5 21//5
f 22//5 23//5 24//5
